<?xml version="1.0" encoding="UTF-8" standalone="no" ?>
<!DOCTYPE svg PUBLIC "-//W3C//DTD SVG 1.1//EN" "http://www.w3.org/Graphics/SVG/1.1/DTD/svg11.dtd">
<svg xmlns="http://www.w3.org/2000/svg" xmlns:xlink="http://www.w3.org/1999/xlink" version="1.1" width="1024" height="1024" viewBox="0 0 1024 1024" xml:space="preserve">
<desc>Created with Fabric.js 5.3.0</desc>
<defs>
</defs>
<g transform="matrix(1 0 0 1 512 512)" id="ejJuU_zo0HcmmLQkUB0B7"  >
<g style=""   >
		<g transform="matrix(1 0 0 1 185.1902370224 -198.1314295393)" id="FLTnQGPNJ4lxfzbncq11w"  >
<path style="stroke: none; stroke-width: 0; stroke-dasharray: none; stroke-linecap: butt; stroke-dashoffset: 0; stroke-linejoin: miter; stroke-miterlimit: 4; fill: rgb(21,164,151); fill-rule: nonzero; opacity: 1;"  transform=" translate(-697.1902370224, -313.8685704607)" d="M 637.09 168.68 C 704.6800000000001 141.71 742.0600000000001 236.83 673.89 265.38 C 673.79 284.54 673.84 303.69 673.86 322.85 C 674.15 325.83000000000004 671.37 327.73 669.87 329.94 C 683.43 329.8 697.01 329.83 710.58 329.9 C 728.7900000000001 311.25 746.7800000000001 292.41999999999996 764.87 273.66999999999996 C 765.17 272.02 764.18 270.42999999999995 763.95 268.79999999999995 C 755.86 240.04999999999995 775.9200000000001 208.46999999999997 805.72 204.51999999999995 C 831.59 199.81999999999996 857.77 219.27999999999994 863 244.61999999999995 C 872.16 282.34999999999997 835.62 317.9699999999999 798.29 304.90999999999997 C 793.8399999999999 303.05999999999995 788.92 304.15 784.25 303.89 C 767.38 321.09 750.67 338.44 733.41 355.26 C 731.18 357.53999999999996 728.36 359.28 725.18 359.76 C 719.53 360.5 713.81 360.03 708.14 360.15999999999997 C 686.56 360.09 664.99 360.29999999999995 643.42 360.03999999999996 C 637.62 365.46 632.61 371.61999999999995 627.03 377.24999999999994 C 636.1 384.68999999999994 644.9399999999999 392.42999999999995 654.11 399.73999999999995 C 690.1800000000001 400.06999999999994 726.26 399.69999999999993 762.34 399.90999999999997 C 768.94 380.09999999999997 784.08 363.36999999999995 805.57 360.60999999999996 C 813.6400000000001 359.16999999999996 821.96 360.4 829.74 362.74999999999994 C 843.01 367.3299999999999 854.36 377.55999999999995 859.66 390.6499999999999 C 863.5 400.56999999999994 865.74 411.55999999999995 863.4699999999999 422.1199999999999 C 860.9499999999999 435.9499999999999 852.7199999999999 448.9499999999999 840.54 456.1999999999999 C 814.5699999999999 473.03999999999985 776.65 460.7499999999999 766.48 431.27999999999986 C 727.78 430.9999999999999 689.08 431.21999999999986 650.37 431.16999999999985 C 645.14 431.4499999999998 639.46 430.74999999999983 635.29 427.28999999999985 C 623.98 416.83999999999986 612.03 407.10999999999984 600.3299999999999 397.07999999999987 C 580.9399999999999 396.4999999999999 561.4599999999999 397.0499999999999 542.03 396.8199999999999 C 538.03 396.3099999999999 534.05 394.14999999999986 532.17 390.45999999999987 C 529.5 386.20999999999987 529.79 380.9299999999999 530.27 376.1399999999999 C 531.54 369.03999999999985 538.61 364.27999999999986 545.5799999999999 364.2999999999999 C 560.55 364.3199999999999 575.53 364.3499999999999 590.4999999999999 364.2799999999999 C 593.5499999999998 360.3999999999999 597.3299999999999 357.1699999999999 600.5899999999999 353.4599999999999 C 606.0699999999999 347.19999999999993 612.3899999999999 341.7399999999999 617.79 335.4099999999999 C 625.55 326.6599999999999 634.61 319.00999999999993 641.9 309.88999999999993 C 641.97 294.19999999999993 641.9499999999999 278.49999999999994 641.9 262.79999999999995 C 618.67 255.12999999999997 603.6 228.75999999999996 609.04 204.85999999999996 C 611.79 189.17999999999995 622.79 175.45999999999995 637.0899999999999 168.67999999999995 Z M 655.15 196.73 C 648.14 198.39 642.13 204.48 641.37 211.76999999999998 C 641.32 214.83999999999997 640.99 218.02999999999997 642.04 220.96999999999997 C 644.2099999999999 227.94999999999996 650.98 233.60999999999996 658.4399999999999 233.43999999999997 C 667.13 234.09999999999997 675.8299999999999 227.74999999999997 677.77 219.23999999999998 C 679.91 211.45 676 202.52999999999997 668.91 198.67999999999998 C 664.8199999999999 196.11999999999998 659.76 195.99999999999997 655.14 196.73 Z M 809.56 237.4 C 792.52 240.79 789.2299999999999 263.67 803.4899999999999 272.61 C 808.6699999999998 275.40000000000003 814.8799999999999 274.75 820.3899999999999 273.42 C 831.8199999999998 269.75 836.0799999999999 253.73000000000002 828.9199999999998 244.4 C 824.5399999999998 238.58 816.6199999999999 235.9 809.5599999999998 237.39000000000001 Z M 810.56 392.92 C 796.26 394.64000000000004 791.28 408.36 796.1899999999999 420.77000000000004 C 800.9399999999999 432.45000000000005 818.15 434.68000000000006 826.6899999999999 426.03000000000003 C 833.3599999999999 419.94000000000005 833.9699999999999 409.26000000000005 829.8199999999999 401.59000000000003 C 826.04 395.02000000000004 817.89 391.84000000000003 810.55 392.91 Z" stroke-linecap="round" />
</g>
		<g transform="matrix(1 0 0 1 -48.1319821762 -34.3856780102)" id="og9sW1xVIMk-Ebkh2bZ3X"  >
<path style="stroke: none; stroke-width: 0; stroke-dasharray: none; stroke-linecap: butt; stroke-dashoffset: 0; stroke-linejoin: miter; stroke-miterlimit: 4; fill: rgb(255,255,255); fill-rule: nonzero; opacity: 1;"  transform=" translate(-463.8680178238, -477.6143219898)" d="M 263.96 228 C 293.35999999999996 205.81 330.21 194.19 366.9 193.56 C 427.38 193.45 487.85999999999996 193.58 548.3399999999999 193.51 C 552.8399999999999 193.57 557.7399999999999 193.09 561.7499999999999 195.6 C 566.9199999999998 198.4 569.5899999999999 204.29999999999998 570.0499999999998 209.95 C 570.1399999999999 216.25 566.2199999999998 222.11999999999998 561.0399999999998 225.45999999999998 C 556.4399999999998 228.32 550.7799999999999 227.62999999999997 545.6399999999999 227.7 C 486.65999999999985 227.79 427.66999999999985 227.51999999999998 368.6999999999999 227.88 C 362.9899999999999 228.13 357.21999999999986 227.65 351.5699999999999 228.7 C 292.33999999999986 234.23 239.6099999999999 283.63 234.7999999999999 343.66999999999996 C 228.4799999999999 390.39 249.7999999999999 439.96 294.4299999999999 459.29999999999995 C 301.2899999999999 462.73999999999995 308.5299999999999 465.31999999999994 315.8199999999999 467.71 C 428.6999999999999 505.65 542.2199999999999 541.81 654.9999999999999 579.9499999999999 C 689.7899999999998 591.53 720.0999999999999 610.67 726.4399999999998 649.52 C 731.1299999999999 674.27 725.6499999999999 701.1 710.2499999999998 721.25 C 696.5799999999998 740.13 675.1599999999997 752.29 652.7399999999998 757.63 C 638.6899999999998 761.11 624.1599999999997 761.86 609.7299999999998 761.66 C 501.68999999999977 761.73 393.62999999999977 761.6 285.5899999999998 761.7199999999999 C 285.6599999999998 750.5199999999999 285.6399999999998 739.3 285.5899999999998 728.0899999999999 C 400.55999999999983 727.4499999999999 515.6399999999999 729.6199999999999 630.5599999999998 727.2199999999999 C 647.9599999999998 725.9799999999999 664.9999999999998 718.81 677.5999999999998 706.6499999999999 C 695.9099999999997 688.2099999999998 699.6499999999997 659.2099999999998 685.1999999999998 637.3299999999999 C 677.3699999999998 625.66 664.5599999999998 618.5999999999999 651.5899999999998 614.0699999999999 C 540.8399999999998 577.7099999999999 429.9999999999998 541.5899999999999 319.3999999999998 504.7799999999999 C 252.7499999999998 485.2399999999999 207.94999999999982 448.55999999999995 200.6799999999998 376.1199999999999 C 194.2999999999998 320.0399999999999 218.4999999999998 261.7999999999999 263.9399999999998 227.9899999999999 Z" stroke-linecap="round" />
</g>
		<g transform="matrix(1 0 0 1 2.0794602963 53.19373633)" id="ZCaiXFN8B4g-TEPIuIMWZ"  >
<path style="stroke: none; stroke-width: 0; stroke-dasharray: none; stroke-linecap: butt; stroke-dashoffset: 0; stroke-linejoin: miter; stroke-miterlimit: 4; fill: rgb(255,255,255); fill-rule: nonzero; opacity: 1;"  transform=" translate(-514.0794602963, -565.19373633)" d="M 325.31 293.81 C 339.01 285.17 355.11 279.87 371.4 280.37 C 432.2 280.37 493 280.4 553.81 280.37 C 564.66 280.6 573.7399999999999 293.37 568.76 303.49 C 566.05 308.8 560.99 313.94 554.68 314.06 C 494.78 314.01 434.86999999999995 314.09 374.9699999999999 314.01 C 361.6199999999999 314.27 347.2699999999999 317.98 338.0299999999999 328.21 C 327.5799999999999 339.71999999999997 328.4599999999999 359.24 339.63999999999993 369.95 C 346.99999999999994 376.92 356.94999999999993 379.81 366.30999999999995 382.97999999999996 C 480.2199999999999 420.72999999999996 594.0999999999999 458.60999999999996 708.06 496.21999999999997 C 782.6099999999999 520 826.8599999999999 567.79 830.92 647.76 C 832.0799999999999 683.31 829.93 719.96 814.89 752.76 C 788.6 813.16 725.68 848.35 661.23 850.03 C 511.36 850.06 361.49 850.03 211.62 850.05 C 206.12 849.8399999999999 200.89000000000001 846.1999999999999 198.92000000000002 841.04 C 196.91000000000003 836.49 196.95000000000002 831.43 196.98000000000002 826.5699999999999 C 197.01000000000002 768.1899999999999 196.96 709.81 197.01000000000002 651.43 C 196.66000000000003 643.3 202.05 634.17 210.73000000000002 633.38 C 302.52000000000004 633.35 394.33000000000004 633.38 486.12 633.35 C 496.32 634.08 502.83 646.48 499.42 655.6700000000001 C 497.77000000000004 661.6100000000001 492.36 666.47 486.11 666.7900000000001 C 400.94 666.7400000000001 315.76 666.7900000000001 230.59 666.7700000000001 L 230.59 815.95 C 372.92 815.84 515.26 815.98 657.6 815.8900000000001 C 745.07 816.7200000000001 801.69 748.3000000000001 796.63 663.1700000000001 C 797.72 616.6800000000001 784.14 574.44 742.74 549.1500000000001 C 727.71 539.5000000000001 710.98 532.8800000000001 694.02 527.5000000000001 C 578.79 489.35000000000014 463.73 450.72000000000014 348.49 412.60000000000014 C 333.75 407.17000000000013 318.71000000000004 399.8800000000001 309.3 386.77000000000015 C 296.32 368.72000000000014 293.58 344.02000000000015 301.47 323.3100000000002 C 306.25 311.39000000000016 314.78000000000003 301.07000000000016 325.34000000000003 293.82000000000016 Z" stroke-linecap="round" />
</g>
</g>
</g>
</svg>