<?xml version="1.0" ?><svg xmlns="http://www.w3.org/2000/svg" xmlns:xlink="http://www.w3.org/1999/xlink" width="24px" height="24px" viewBox="0 0 24 24" version="1.1"><title/><g id="social/logos/linkedin" stroke="none" stroke-width="1" fill="none" fill-rule="evenodd" stroke-linecap="round" stroke-linejoin="round"><path d="M4.5,6.5 C5.6045695,6.5 6.5,5.6045695 6.5,4.5 C6.5,3.3954305 5.6045695,2.5 4.5,2.5 C3.3954305,2.5 2.5,3.3954305 2.5,4.5 C2.5,5.6045695 3.3954305,6.5 4.5,6.5 Z M2.5,8.5 L6.5,8.5 L6.5,20.5 L2.5,20.5 L2.5,8.5 Z M13.5,20.5 L9.5,20.5 L9.5,8.5 L13.5,8.5 L13.5000977,9.67121211 C14.3250773,8.65178201 15.5864227,8 17,8 C19.4852814,8 21.5,10.0147186 21.5,12.5 L21.5,20.5 L17.5,20.5 L17.5,13.5 C17.5,12.3954305 16.6045695,11.5 15.5,11.5 C14.3954305,11.5 13.5,12.3954305 13.5,13.5 L13.5,20.5 Z" id="line" stroke="#000000"/></g></svg>